<svg xmlns="http://www.w3.org/2000/svg" viewBox="0 0 623.86 106.53"><title>coliving</title><path d="M0,53.4A53.48,53.48,0,0,1,53.26,0C73.43,0,84.42,9.6,86.5,11.4L76.63,24.48A37.11,37.11,0,1,0,53.26,90.39a36.53,36.53,0,0,0,23.37-8.2l9.45,12.65C84,96.65,73.43,106.53,53.26,106.53,23.5,106.53,0,85.53,0,53.4ZM151,0A53.27,53.27,0,1,1,97.77,53.26,53.18,53.18,0,0,1,151,0Zm0,90.39A37.06,37.06,0,1,0,113.9,53.26,37.09,37.09,0,0,0,151,90.39Zm119.18-1.11v16.13H217.09V1.11h16.13V88a1.1,1.1,0,0,0,1.25,1.25Zm28.93-88V105.41H283V1.25Zm95.26-.14-37.13,104.3h-12.1L308.45,1.11H325.7l22.11,66.06c.56,1.67,2.92,9.6,3.48,9.6,1.25-3.2,2.36-6.4,3.47-9.6,7.37-22,14.88-43.95,22.25-66.06Zm25,.14V105.41H403.3V1.25Zm30.46,0c14.6,23.23,29.34,46.45,43.94,69.81,1.25,2,2.5,3.9,3.9,5.71V1.25H514V105.41H496.89L453.22,35.88c-1.25-2-2.78-3.76-4-5.7,0,2.64-.14,5.42-.14,8.34v66.89H432.92V1.25Zm174,84.42c-7.23,11-21.83,20.86-43.25,20.86A53.27,53.27,0,0,1,580.61,0a57.07,57.07,0,0,1,35.74,12.93L605.92,25.31a41.52,41.52,0,0,0-25.31-9,37.07,37.07,0,0,0-37,37c0,20.45,16.69,37.13,37.82,37.13,12,0,21.42-4.58,25.87-10.29V66.47c-1.95-.13-4.17-.27-6.4-.27H576.3V50.34h47.56Z"/></svg>